<svg xmlns="http://www.w3.org/2000/svg" xmlns:xlink="http://www.w3.org/1999/xlink" width="500" zoomAndPan="magnify" viewBox="0 0 375 374.999991" height="500" preserveAspectRatio="xMidYMid meet" version="1.2"><defs><filter x="0%" y="0%" width="100%" filterUnits="objectBoundingBox" id="01bb713448" height="100%"><feColorMatrix values="0 0 0 0 1 0 0 0 0 1 0 0 0 0 1 0 0 0 1 0" type="matrix" in="SourceGraphic"/></filter><clipPath id="b8f325b9b7"><rect x="0" width="375" y="0" height="375"/></clipPath></defs><g id="04c653e681"><g mask="url(#352fb42783)" transform="matrix(1,0,0,1,0,0)"><g clip-path="url(#b8f325b9b7)"><path style=" stroke:none;fill-rule:nonzero;fill:#55afc1;fill-opacity:1;" d="M 4.492188 -8.277344 C 2.796875 -6.511719 1.515625 -4.996094 0.65625 -3.730469 C 0.277344 -3.203125 -0.113281 -2.625 -0.511719 -2 C -1.519531 -0.347656 -2.136719 0.703125 -2.363281 1.152344 C -3.867188 3.9375 -4.996094 6.242188 -5.738281 8.0625 L -5.738281 10.851562 C -4.84375 8.578125 -4.085938 6.796875 -3.464844 5.511719 C -2.214844 3.003906 -1.101562 0.925781 -0.132812 -0.722656 C 0.929688 -2.375 1.792969 -3.609375 2.457031 -4.425781 C 2.863281 -4.9375 3.292969 -5.449219 3.746094 -5.964844 C 3.945312 -6.21875 4.675781 -6.992188 5.941406 -8.277344 L 5.945312 -8.277344 C 5.945312 -8.277344 5.941406 -8.277344 5.941406 -8.277344 Z M 306.8125 -8.277344 L 305.875 -8.277344 C 302.929688 1.269531 298.738281 11.664062 293.308594 22.90625 C 293.214844 23.148438 293.085938 23.433594 292.925781 23.761719 C 294.519531 20.820312 296.207031 17.667969 297.988281 14.308594 C 298.632812 14.058594 301.574219 6.527344 306.820312 -8.277344 Z M 292.871094 23.863281 C 292.53125 24.488281 292.199219 25.101562 291.867188 25.707031 L 291.867188 25.710938 C 292.28125 24.992188 292.617188 24.375 292.875 23.863281 Z M 27.242188 -8.277344 C 22.054688 -5.410156 18.792969 -3.433594 17.460938 -2.355469 C 17.03125 -2.082031 16.292969 -1.464844 15.25 -0.503906 C 11.449219 3.535156 8.972656 6.289062 7.820312 7.761719 C 6.035156 9.90625 4.304688 12.117188 2.632812 14.390625 L 1.59375 16.308594 C -1.519531 21.996094 -3.964844 27.734375 -5.738281 33.527344 L -5.738281 37.011719 C -4.554688 33.074219 -3.296875 29.445312 -1.964844 26.121094 C -1.65625 25.195312 -0.613281 22.875 1.160156 19.160156 C 1.882812 17.730469 2.625 16.375 3.386719 15.09375 C 5.074219 12.789062 6.808594 10.5625 8.582031 8.421875 C 12.824219 3.402344 15.855469 0.183594 17.679688 -1.238281 C 22.742188 -4.65625 26.667969 -7 29.453125 -8.277344 L 29.457031 -8.277344 C 29.457031 -8.277344 29.457031 -8.277344 29.453125 -8.277344 Z M 52.472656 -8.277344 L 48.871094 -6.242188 C 44.898438 -4.117188 38.917969 -0.375 30.921875 4.984375 C 25.355469 8.734375 20.144531 13.300781 15.285156 18.683594 C 10.523438 23.496094 6.121094 29.816406 2.078125 37.640625 C 1.65625 38.347656 0.515625 40.832031 -1.34375 45.09375 L -5.613281 56.597656 C -5.695312 56.628906 -5.75 57.457031 -5.78125 59.089844 L -5.738281 61.996094 C -4.679688 57.765625 -3.46875 53.746094 -2.109375 49.933594 L 0.0429688 44.375 C 1.550781 40.773438 3.210938 37.378906 5.023438 34.195312 L 7.851562 29.578125 C 9.8125 26.601562 11.925781 23.835938 14.1875 21.28125 L 19.886719 15.273438 C 22.347656 13.066406 25.332031 10.59375 28.847656 7.84375 C 34.640625 3.492188 43.113281 -1.882812 54.265625 -8.277344 Z M 77.433594 -8.277344 C 72.824219 -3.175781 67.757812 1.207031 62.234375 4.871094 C 51.6875 11.417969 41.351562 17.582031 31.230469 23.371094 C 30.007812 23.753906 25.59375 27.578125 17.988281 34.84375 C 12.476562 40.324219 7.964844 45.683594 4.453125 50.921875 C 1.320312 56.574219 -1.089844 61.421875 -2.78125 65.464844 C -5.242188 71.984375 -6.226562 75.78125 -5.738281 76.851562 C -2.941406 68.628906 -1.179688 63.90625 -0.453125 62.683594 C 0.824219 59.796875 2.167969 57.085938 3.585938 54.550781 C 7.917969 47 12.695312 40.910156 17.914062 36.277344 C 24.503906 29.792969 28.574219 26.164062 30.125 25.390625 L 63.121094 5.472656 L 65.402344 3.894531 C 69.910156 0.601562 74.433594 -3.457031 78.972656 -8.277344 Z M 95.585938 -8.277344 L 94.34375 -8.277344 C 88.621094 -0.707031 82.113281 5.953125 74.820312 11.695312 L 33.519531 37.46875 C 23.265625 45.363281 17.375 50.214844 15.859375 52.019531 C 10.523438 57.289062 5.847656 63.378906 1.832031 70.296875 C 0.0234375 73.285156 -2.390625 78.230469 -5.40625 85.128906 C -5.789062 85.730469 -5.902344 87.074219 -5.738281 89.160156 C -0.59375 74.328125 6.921875 62.121094 16.816406 52.542969 C 18.101562 51.179688 23.851562 46.4375 34.066406 38.316406 L 75.390625 12.527344 C 83.570312 5.792969 90.304688 -1.140625 95.585938 -8.277344 Z M 116.269531 -8.277344 L 115.0625 -8.277344 C 107.042969 1.6875 99.484375 9.121094 92.386719 14.023438 C 73.769531 24.035156 58.464844 33.164062 46.464844 41.417969 C 36.015625 48.765625 28.09375 54.992188 22.695312 60.097656 C 16.679688 66.164062 10.886719 73.574219 5.308594 82.332031 C -2.871094 96.855469 -6.554688 105.15625 -5.738281 107.230469 C 1.585938 87.757812 12.277344 71.4375 26.347656 58.269531 C 31.078125 53.667969 40.6875 46.496094 55.171875 36.757812 C 56.183594 36.019531 60.789062 33.195312 68.996094 28.289062 L 95.089844 13.300781 C 100.683594 9.613281 107.746094 2.421875 116.273438 -8.277344 Z M 132.527344 -8.277344 L 131.386719 -8.277344 C 130.769531 -6.773438 128.511719 -2.8125 124.605469 3.597656 C 121.382812 8.601562 117.894531 13.234375 114.132812 17.503906 C 105.75 26.40625 97.605469 34.074219 89.699219 40.515625 C 85.988281 43.570312 82.378906 46.21875 78.867188 48.46875 C 77.074219 49.738281 63.777344 56.519531 38.972656 68.816406 C 33.488281 72.003906 28.699219 75.257812 24.605469 78.578125 C 15.339844 87.78125 9.179688 94.863281 6.132812 99.816406 C -2.105469 111.984375 -6.0625 119.636719 -5.738281 122.773438 C -3.875 117.449219 -0.0507812 110.476562 5.726562 101.863281 C 5.820312 101.082031 11.394531 94.421875 22.441406 81.878906 C 26.847656 77.792969 31.871094 74.121094 37.511719 70.859375 C 59.082031 60.09375 71.949219 53.484375 76.109375 51.03125 C 79.414062 49.597656 84.195312 46.324219 90.453125 41.210938 C 96.773438 36.359375 105.738281 27.671875 117.347656 15.144531 C 122.402344 9.457031 127.460938 1.648438 132.527344 -8.277344 Z M 150.507812 -8.277344 L 149.257812 -8.277344 C 144.4375 1.574219 138.53125 11.113281 131.550781 20.332031 C 123.527344 29.238281 117.367188 35.808594 113.074219 40.046875 C 108.207031 44.871094 102.578125 49.109375 96.1875 52.765625 C 94.332031 54.035156 77.253906 63.222656 44.957031 80.328125 C 39.75 83.511719 32.980469 88.550781 24.644531 95.449219 C 13.933594 105.472656 6.984375 113.261719 3.804688 118.820312 C 2.414062 120.378906 -0.765625 125.9375 -5.738281 135.5 L -5.738281 137.964844 C 1.75 120.4375 13.835938 105.074219 30.523438 91.886719 C 35.90625 87.582031 41.394531 83.714844 46.988281 80.28125 C 76.445312 64.882812 94.15625 55.308594 100.113281 51.5625 C 105.296875 48.234375 109.722656 44.757812 113.382812 41.128906 C 118.6875 35.859375 125.003906 29.136719 132.332031 20.964844 C 138.808594 12.390625 144.871094 2.644531 150.511719 -8.277344 Z M 171.789062 -8.277344 L 170.6875 -8.277344 C 161.921875 12.171875 147.015625 31.804688 125.96875 50.617188 C 121.460938 54.636719 115.433594 59.230469 107.886719 64.390625 C 106.488281 65.65625 85.933594 76.359375 46.21875 96.507812 C 39.332031 100.457031 33.414062 104.371094 28.457031 108.253906 C 22.082031 112.953125 15.269531 119.632812 8.015625 128.300781 C 4.285156 133.140625 -0.300781 140.078125 -5.738281 149.109375 L -5.738281 151.421875 C 1.8125 136.261719 13.136719 122.269531 28.234375 109.449219 C 33.746094 105.363281 39.898438 101.34375 46.691406 97.398438 C 73.980469 83.824219 95.035156 72.742188 109.855469 64.160156 C 118.519531 58.148438 124.566406 53.476562 128.007812 50.148438 C 148.480469 31.554688 163.078125 12.078125 171.792969 -8.277344 Z M 194.347656 -8.277344 L 193.25 -8.277344 C 180.761719 20.582031 164.867188 43.292969 145.566406 59.855469 C 141.695312 63.519531 134.140625 69.449219 122.894531 77.644531 C 78.859375 100.664062 50.324219 116.777344 37.285156 125.980469 C 28.355469 132.371094 19.519531 140.148438 10.78125 149.308594 C -0.382812 161.441406 -5.890625 168.574219 -5.738281 170.703125 C 3.53125 157.015625 17.703125 142.59375 36.78125 127.441406 C 50.984375 117.558594 79.875 101.238281 123.449219 78.484375 C 129.753906 74.25 136.742188 68.742188 144.414062 61.957031 C 165.835938 43.878906 182.484375 20.46875 194.351562 -8.277344 Z M 218.15625 -8.277344 L 217.117188 -8.277344 C 213.957031 -1.128906 210.152344 6.417969 205.710938 14.367188 C 202.234375 20.027344 196.246094 28.753906 187.738281 40.542969 C 182.910156 46.738281 177.71875 52.816406 172.15625 58.777344 C 168.191406 63.316406 160.667969 70.582031 149.582031 80.582031 C 137.375 90.484375 129.851562 96.113281 127.011719 97.472656 C 96.292969 114.019531 67.40625 129.015625 40.355469 142.453125 C 37.921875 143.738281 35.0625 145.46875 31.777344 147.636719 C 11.304688 161.882812 -1.199219 174.242188 -5.738281 184.71875 C 5.304688 169.195312 18.34375 156.886719 33.378906 147.792969 L 40.8125 143.351562 C 82.136719 122.4375 108.507812 108.789062 119.921875 102.398438 C 131.464844 95.703125 140.328125 89.8125 146.511719 84.722656 C 171.867188 61.246094 185.148438 47.746094 186.351562 44.226562 C 198.933594 28.078125 209.535156 10.574219 218.160156 -8.277344 Z M 247.085938 -8.277344 L 245.851562 -8.277344 C 236.707031 11.535156 226.695312 28.5 215.816406 42.609375 C 209.339844 51.652344 198.050781 62.867188 181.949219 76.246094 C 172.933594 83.683594 161.335938 92.078125 147.160156 101.429688 C 129.96875 111.09375 98.222656 127.765625 51.917969 151.4375 L 39.476562 159.128906 C 19.421875 172.199219 4.347656 186.863281 -5.738281 203.121094 C 3.523438 191.121094 12.09375 181.65625 19.980469 174.726562 C 22.328125 172.46875 29.007812 167.554688 40.015625 159.980469 L 52.398438 152.324219 C 93.839844 131.320312 126.496094 114.078125 150.363281 100.597656 C 160.363281 94.082031 171.75 85.695312 184.519531 75.4375 C 210.890625 54.144531 231.746094 26.242188 247.089844 -8.277344 Z M 279.714844 -8.277344 L 278.683594 -8.277344 C 275.03125 4.9375 265.3125 23.375 249.519531 47.042969 C 236.457031 63.527344 223.640625 76.78125 211.070312 86.800781 C 195 100.015625 179.683594 110.699219 165.121094 118.847656 C 148.722656 127.125 116.382812 142.40625 68.097656 164.6875 L 50.335938 174.867188 C 18.378906 197.144531 -0.3125 214.296875 -5.738281 226.3125 C 10.234375 206.039062 27.917969 189.921875 47.308594 177.96875 C 54.722656 173.269531 61.800781 169.144531 68.539062 165.589844 C 126.429688 138.832031 159.574219 123.085938 167.976562 118.351562 C 187.222656 106.679688 202.800781 95.640625 214.710938 85.226562 C 229.660156 72.625 244.519531 55.660156 259.289062 34.328125 C 267.601562 19.8125 274.410156 5.613281 279.722656 -8.277344 Z M 291.792969 25.835938 C 288.65625 31.222656 281.199219 42.136719 269.425781 58.585938 C 252.320312 79.183594 234.105469 96.875 214.773438 111.664062 C 202.824219 120.566406 187.585938 130.496094 169.0625 141.457031 L 69.699219 182.222656 C 60.757812 186.207031 50.496094 191.503906 38.921875 198.117188 C 31.03125 202.789062 23.363281 208.582031 15.917969 215.496094 C 1.3125 230.117188 -5.90625 238.761719 -5.738281 241.429688 C -3.382812 236.558594 3.949219 228.238281 16.257812 216.46875 C 27.992188 206.675781 36.050781 200.679688 40.433594 198.480469 C 50.953125 192.417969 60.835938 187.308594 70.082031 183.15625 L 169.542969 142.34375 C 192.882812 128.488281 210.457031 116.734375 222.273438 107.085938 C 242.722656 90.054688 260.207031 72.234375 274.726562 53.628906 C 277.550781 50.785156 283.238281 41.523438 291.796875 25.835938 Z M 337.382812 -8.277344 L 336.324219 -8.277344 C 336.898438 -4.191406 328.773438 14.53125 311.953125 47.882812 C 306.617188 57.378906 299.394531 68.113281 290.285156 80.082031 C 278.125 95.589844 255.261719 116.726562 221.699219 143.492188 C 207.523438 155.714844 188.027344 167.398438 163.210938 178.554688 C 145.949219 184.800781 118.050781 193.042969 79.511719 203.28125 C 66.535156 207.742188 54.363281 212.796875 43 218.4375 C 34.597656 222.660156 26.332031 228.039062 18.210938 234.578125 C 2.136719 248.59375 -5.84375 256.800781 -5.738281 259.199219 C 3.484375 248.480469 13.683594 238.957031 24.859375 230.632812 C 28.890625 227.59375 36.335938 223.289062 47.191406 217.722656 C 61.394531 211.070312 71.316406 206.882812 76.964844 205.160156 C 126.671875 191.679688 156.648438 182.632812 166.894531 178.011719 C 183.503906 170.949219 201.085938 160.433594 219.640625 146.46875 C 254.570312 119.167969 279.285156 96.070312 293.777344 77.175781 C 302.707031 65.445312 312.738281 48.707031 323.875 26.960938 L 327.113281 20.476562 Z M 364.734375 -8.277344 L 363.6875 -8.277344 C 350.445312 32.621094 336.308594 64 321.273438 85.859375 L 308.761719 104.015625 C 300.074219 115.714844 290.6875 126.609375 280.601562 136.699219 C 270.515625 146.792969 259.730469 156.078125 248.25 164.558594 C 226.160156 179.382812 208.285156 189.269531 194.617188 194.222656 C 162.554688 203.734375 128.28125 211.960938 91.796875 218.90625 C 81.5 221.992188 72.066406 225.390625 63.492188 229.09375 C 23.953125 247.613281 0.875 263.109375 -5.738281 275.578125 C 11.621094 257.300781 33.867188 242.519531 60.996094 231.230469 C 72.671875 226.226562 83.019531 222.445312 92.042969 219.882812 C 147.269531 208.390625 180.957031 200.417969 193.105469 195.96875 C 218.800781 184.769531 237.929688 174.183594 250.496094 164.207031 C 280.164062 139.785156 302.804688 115.949219 318.425781 92.695312 C 337.480469 64.1875 352.917969 30.53125 364.742188 -8.277344 Z M 401.980469 -8.277344 L 401.238281 -8.277344 C 396.324219 15.207031 379.96875 50.390625 352.175781 97.277344 C 326.488281 130.074219 302.410156 154.800781 279.941406 171.464844 C 242.972656 196.730469 217.554688 211.539062 203.6875 215.894531 C 173.804688 224.171875 134.476562 232.089844 85.707031 239.648438 C 78.382812 241.136719 65.898438 245.28125 48.261719 252.082031 C 40.308594 255.382812 31.832031 260.070312 22.832031 266.136719 C 4.175781 279.527344 -5.347656 287.441406 -5.738281 289.878906 C 10.117188 273.5625 31.652344 259.917969 58.859375 248.949219 C 69.960938 244.996094 80.121094 241.964844 89.335938 239.851562 C 139.539062 231.917969 175.9375 224.828125 198.539062 218.578125 C 224.035156 208.453125 246.609375 196.429688 266.265625 182.507812 C 305.039062 154.007812 333.800781 125.890625 352.554688 98.160156 C 378.507812 56.304688 394.984375 20.824219 401.984375 -8.277344 Z M 405.382812 52.78125 L 396.035156 70.46875 C 389.34375 82.214844 381.761719 93.839844 373.28125 105.34375 C 370.160156 111.246094 355.425781 128.222656 329.078125 156.273438 C 324.613281 161.992188 305.851562 178.417969 272.792969 205.550781 L 244.617188 222.980469 C 229.832031 232.152344 212.371094 239.308594 192.230469 244.445312 L 179.546875 247.285156 C 134.53125 253.910156 103.59375 258.679688 86.742188 261.597656 C 76.625 263.398438 64.890625 266.480469 51.535156 270.84375 C 34.847656 274.839844 15.753906 285.738281 -5.738281 303.539062 L -5.738281 304.921875 C 6.308594 294.5625 15.222656 287.992188 21.007812 285.214844 C 31.425781 279.46875 43.601562 274.253906 57.535156 269.570312 C 61.847656 267.722656 69.761719 265.753906 81.273438 263.660156 C 100.402344 260.09375 133.226562 254.964844 179.738281 248.277344 C 183.980469 247.449219 188.269531 246.484375 192.605469 245.378906 C 211.539062 241.335938 232.15625 232.371094 254.457031 218.484375 L 283.699219 199.289062 C 309.472656 177.402344 331.804688 155.800781 350.695312 134.476562 C 381.371094 98.394531 399.605469 71.164062 405.390625 52.78125 Z M 405.398438 113.785156 L 401.730469 119.253906 L 366.285156 170.804688 C 361.039062 177.367188 354.226562 184.867188 345.851562 193.300781 C 329.839844 210.15625 303.726562 229.140625 267.515625 250.261719 C 250.132812 258.847656 231.628906 264.660156 212.015625 267.691406 C 201.023438 269.171875 192.28125 270.023438 185.789062 270.25 C 183.65625 270.246094 181.566406 270.246094 179.515625 270.246094 C 143.886719 270.246094 120.984375 270.652344 110.8125 271.464844 C 91.730469 273.609375 77.28125 275.84375 67.46875 278.175781 C 51.640625 281.90625 39.027344 285.976562 29.621094 290.382812 C 21.195312 293.390625 9.40625 300.707031 -5.738281 312.339844 L -5.738281 313.738281 C -0.289062 307.636719 10.210938 300.8125 25.761719 293.269531 C 36.878906 288.015625 51.730469 283.136719 70.320312 278.632812 C 80.097656 276.414062 93.632812 274.359375 110.933594 272.464844 C 121.128906 271.683594 141.527344 271.292969 172.132812 271.292969 C 175.773438 271.292969 179.558594 271.300781 183.484375 271.3125 C 194.296875 270.796875 203.050781 270.050781 209.753906 269.066406 C 231.890625 265.636719 251.292969 259.671875 267.960938 251.167969 C 302.183594 232.289062 330.054688 211.421875 351.578125 188.558594 C 354.789062 186.996094 363.296875 176.300781 377.09375 156.484375 L 401.15625 121.8125 L 405.402344 115.398438 Z M 405.367188 171.746094 L 402.824219 175.9375 C 387.457031 199.605469 369.222656 220.40625 348.113281 238.34375 C 331.363281 252.640625 315.992188 264.386719 302.007812 273.585938 C 294.617188 277.839844 287.363281 281.230469 280.246094 283.75 C 260.347656 291.191406 240.285156 295.8125 220.054688 297.613281 C 214.195312 298.027344 207.984375 298.234375 201.414062 298.234375 C 199.097656 298.234375 196.738281 298.210938 194.335938 298.160156 C 156.414062 295.855469 132.710938 294.699219 123.222656 294.699219 C 122.324219 294.699219 121.550781 294.710938 120.90625 294.730469 C 98.152344 295.195312 82.90625 296.117188 75.167969 297.496094 C 57.027344 300.410156 42.507812 303.878906 31.605469 307.898438 L 22.957031 311.226562 C 17.390625 313.554688 12.214844 316.117188 7.429688 318.90625 C 2.648438 321.699219 -1.742188 324.71875 -5.738281 327.964844 L -5.738281 329.207031 C -1.46875 325.851562 5.820312 321.367188 16.136719 315.746094 C 21.34375 312.992188 28.050781 310.109375 36.257812 307.09375 C 41.648438 304.953125 54.667969 302.085938 75.316406 298.496094 C 83.019531 297.117188 98.222656 296.199219 120.917969 295.738281 C 139.191406 296.007812 163.652344 297.148438 194.300781 299.167969 C 196.710938 299.210938 199.066406 299.234375 201.359375 299.234375 C 207.503906 299.234375 213.230469 299.070312 218.546875 298.742188 C 240.160156 296.773438 261.433594 291.9375 282.363281 284.226562 C 284.71875 283.640625 291.453125 280.371094 302.570312 274.421875 C 313.636719 267.757812 331.355469 253.90625 355.734375 232.867188 C 379.976562 210.261719 396.523438 189.886719 405.375 171.746094 Z M 405.386719 212.089844 L 400.316406 217.75 C 385.152344 235.070312 364.203125 253.507812 337.460938 273.066406 C 304.503906 295.464844 281.234375 308.167969 267.65625 311.171875 C 252.390625 315.824219 236.257812 318.425781 219.257812 318.980469 C 216.976562 319.019531 214.511719 319.039062 211.863281 319.039062 C 189.992188 319.039062 155.601562 317.730469 108.6875 315.113281 C 107.832031 315.097656 106.953125 315.089844 106.058594 315.089844 C 97.230469 315.089844 86.566406 315.835938 74.058594 317.328125 C 60.457031 318.773438 47.648438 321.378906 35.628906 325.152344 C 29.617188 327.035156 23.808594 329.210938 18.191406 331.679688 C 12.578125 334.144531 7.160156 336.902344 1.941406 339.953125 L -5.738281 344.742188 L -5.738281 345.953125 C 12.453125 334.96875 25.671875 328.523438 33.925781 326.617188 C 41.832031 323.824219 55.253906 321.058594 74.1875 318.328125 C 86.523438 316.84375 97.207031 316.101562 106.234375 316.101562 C 107.152344 316.101562 108.054688 316.109375 108.9375 316.125 C 155.542969 318.738281 189.851562 320.042969 211.859375 320.042969 C 214.523438 320.042969 217.011719 320.023438 219.316406 319.984375 C 241.796875 318.832031 260.671875 315.371094 275.945312 309.609375 C 303.640625 297.183594 330.253906 280.84375 355.789062 260.59375 C 387.0625 233.453125 403.597656 217.28125 405.394531 212.089844 Z M 405.394531 257.71875 L 404.449219 258.777344 C 398.734375 267.265625 381.511719 282.039062 352.789062 303.097656 C 345.433594 307.742188 333.238281 314.636719 316.195312 323.785156 C 307.609375 326.941406 300.070312 329.34375 293.574219 330.996094 C 278.886719 335.144531 260.039062 337.929688 237.035156 339.34375 C 235.925781 339.386719 234.554688 339.40625 232.914062 339.40625 C 216.847656 339.40625 175.246094 337.421875 108.101562 333.449219 C 94.5 333.710938 83.316406 334.386719 74.554688 335.484375 C 57.015625 337.363281 42.894531 340.398438 32.199219 344.585938 C 26.324219 346.753906 20.773438 349.277344 15.554688 352.164062 C 3.070312 360.007812 -4.027344 365.144531 -5.738281 367.578125 L -5.738281 368.949219 C -0.289062 363.820312 6.113281 359.039062 13.46875 354.597656 C 18.570312 351.574219 23.933594 348.929688 29.5625 346.671875 C 33.292969 345.113281 38.734375 343.304688 45.886719 341.238281 C 52.414062 339.816406 60.953125 338.375 71.503906 336.914062 C 86.332031 335.257812 97.714844 334.429688 105.652344 334.429688 C 106.503906 334.429688 107.316406 334.441406 108.085938 334.457031 C 174.019531 338.371094 215.558594 340.328125 232.707031 340.328125 C 234.503906 340.328125 236.03125 340.304688 237.289062 340.261719 C 250.492188 339.273438 260.285156 338.375 266.671875 337.570312 C 274.800781 336.371094 283.875 334.5 293.894531 331.957031 C 309.496094 329.105469 329.425781 319.515625 353.679688 303.183594 C 370.484375 291.722656 379.78125 284.710938 381.566406 282.15625 C 389.546875 275.113281 396.523438 268.480469 402.496094 262.253906 C 405.402344 259.667969 406.371094 258.15625 405.402344 257.71875 Z M 405.378906 287.992188 L 404.335938 289.222656 C 396.632812 300.222656 380.488281 314.304688 355.898438 331.460938 C 343.183594 340.03125 323.777344 348.238281 297.683594 356.078125 C 290.769531 358.601562 274.597656 361.050781 249.167969 363.421875 C 247.714844 363.453125 246.070312 363.46875 244.230469 363.46875 C 228.09375 363.46875 197.101562 362.300781 151.25 359.972656 C 116.152344 360.359375 88.464844 361.546875 68.199219 363.53125 C 61.210938 364.121094 54.5625 364.980469 48.246094 366.113281 C 41.933594 367.246094 35.953125 368.648438 30.308594 370.324219 L 22.09375 373.042969 C 11.472656 376.933594 2.195312 381.914062 -5.738281 387.976562 L -5.738281 389.214844 C 3.71875 383.046875 11.597656 378.542969 17.90625 375.699219 L 30.675781 370.976562 C 39.855469 368.503906 53.789062 366.183594 72.472656 364.019531 C 85.226562 362.695312 111.484375 361.679688 151.246094 360.980469 C 195.503906 363.25 226.308594 364.382812 243.660156 364.382812 C 245.667969 364.382812 247.492188 364.367188 249.140625 364.335938 C 269.554688 362.714844 285.703125 360.367188 297.585938 357.285156 C 320.667969 350.648438 339.363281 342.824219 353.675781 333.8125 C 380.117188 316.433594 397.355469 301.160156 405.382812 287.992188 Z M 405.394531 336.34375 L 404.039062 337.574219 C 392.230469 349.308594 378.058594 359.132812 361.527344 367.050781 C 345.496094 373.875 327.011719 379.089844 306.078125 382.699219 C 302 383.308594 295.652344 384.050781 287.035156 384.925781 C 281.058594 385.347656 276.152344 385.558594 272.3125 385.558594 C 272.132812 385.558594 271.960938 385.558594 271.789062 385.554688 C 271.683594 385.765625 270.75 385.925781 268.980469 386.027344 L 262.933594 385.882812 C 256.011719 385.566406 244.953125 384.679688 229.757812 383.230469 C 220.691406 382.460938 195.234375 379.761719 153.394531 375.132812 C 139.851562 374.710938 128.773438 374.5 120.164062 374.5 C 115.875 374.5 112.195312 374.554688 109.132812 374.65625 C 109.007812 374.65625 108.882812 374.65625 108.757812 374.65625 C 97.90625 374.65625 84.886719 376.402344 69.691406 379.894531 C 54.847656 384.800781 46.550781 388.40625 44.800781 390.707031 L 46.636719 390.707031 C 46.734375 390.160156 51.234375 387.929688 60.136719 384.019531 C 62.683594 383 66.246094 381.875 70.816406 380.636719 C 85.5 377.332031 98.285156 375.671875 109.171875 375.664062 C 112.21875 375.558594 115.878906 375.507812 120.152344 375.507812 C 128.730469 375.507812 139.78125 375.71875 153.308594 376.136719 C 194.765625 380.71875 220.0625 383.390625 229.195312 384.152344 C 244.398438 385.589844 255.570312 386.464844 262.714844 386.777344 L 269.320312 386.910156 L 287.199219 385.925781 C 291.164062 385.730469 297.539062 384.941406 306.324219 383.5625 C 327.9375 379.988281 347.117188 374.492188 363.871094 367.066406 C 368.195312 365.3125 375.113281 361.214844 384.625 354.777344 C 389.753906 351.109375 395.921875 346.148438 403.121094 339.886719 C 405.402344 338.3125 406.164062 337.132812 405.398438 336.34375 Z M 405.398438 366.050781 L 404.753906 366.71875 C 399.945312 371.703125 394.984375 376.519531 389.882812 381.164062 C 384.828125 385.792969 381.027344 388.976562 378.480469 390.707031 L 380.195312 390.710938 L 380.738281 390.304688 C 382.175781 389.222656 383.582031 388.089844 384.957031 386.898438 C 388.902344 383.410156 391.230469 381.324219 391.9375 380.644531 C 396.125 376.824219 400.613281 372.445312 405.402344 367.507812 Z M 405.398438 366.050781 "/></g><mask id="352fb42783"><g filter="url(#01bb713448)"><rect x="0" width="375" y="0" height="374.999991" style="fill:#000000;fill-opacity:0.16;stroke:none;"/></g></mask></g></g></svg>