<svg xmlns="http://www.w3.org/2000/svg" xmlns:xlink="http://www.w3.org/1999/xlink" width="500" zoomAndPan="magnify" viewBox="0 0 375 374.999991" height="500" preserveAspectRatio="xMidYMid meet" version="1.2"><defs><filter x="0%" y="0%" width="100%" filterUnits="objectBoundingBox" id="6e0165ccd3" height="100%"><feColorMatrix values="0 0 0 0 1 0 0 0 0 1 0 0 0 0 1 0 0 0 1 0" type="matrix" in="SourceGraphic"/></filter><clipPath id="4189f8a8f3"><rect x="0" width="375" y="0" height="375"/></clipPath></defs><g id="91f43981f0"><g mask="url(#8f1d5095e2)" transform="matrix(1,0,0,1,0,0)"><g clip-path="url(#4189f8a8f3)"><path style=" stroke:none;fill-rule:nonzero;fill:#55afc1;fill-opacity:1;" d="M 93.441406 23.902344 L 69.554688 0.0195312 L 71.917969 0.0195312 L 93.441406 21.542969 L 115 0.0195312 L 117.363281 0.0195312 Z M 351.226562 8.117188 L 332.777344 26.566406 L 374.664062 68.449219 L 374.960938 68.148438 L 374.960938 70.511719 L 374.664062 70.8125 L 331.804688 27.914062 L 305.746094 53.976562 L 374.699219 122.929688 L 375 122.632812 L 375 124.992188 L 374.699219 125.292969 L 351.265625 101.859375 L 332.816406 120.308594 L 374.699219 162.191406 L 375 161.890625 L 375 164.253906 L 374.699219 164.550781 L 331.804688 121.65625 L 305.746094 147.714844 L 345.492188 187.5 L 374.664062 216.671875 L 374.960938 216.371094 L 374.960938 218.734375 L 374.664062 219.035156 L 351.226562 195.597656 L 332.777344 214.046875 L 374.664062 255.929688 L 374.960938 255.628906 L 374.960938 257.992188 L 374.664062 258.292969 L 331.804688 215.398438 L 305.746094 241.457031 L 374.699219 310.414062 L 375 310.113281 L 375 312.476562 L 374.699219 312.773438 L 351.265625 289.339844 L 332.816406 307.789062 L 374.699219 349.671875 L 375 349.371094 L 375 351.734375 L 374.699219 352.035156 L 331.804688 309.136719 L 305.746094 335.199219 L 345.492188 374.980469 L 342.753906 374.980469 L 323.78125 356.007812 L 304.808594 374.980469 L 302.445312 374.980469 L 322.769531 354.660156 L 304.320312 336.210938 L 280.882812 359.644531 L 257.449219 336.210938 L 239 354.660156 L 259.324219 374.980469 L 256.960938 374.980469 L 237.988281 356.007812 L 219.015625 374.980469 L 216.351562 374.980469 L 256.136719 335.199219 L 230.078125 309.136719 L 187.480469 351.695312 L 187.179688 351.996094 L 144.324219 309.136719 L 118.261719 335.199219 L 158.007812 374.980469 L 155.273438 374.980469 L 136.300781 356.007812 L 117.324219 374.980469 L 114.964844 374.980469 L 135.285156 354.660156 L 116.839844 336.210938 L 93.402344 359.644531 L 69.96875 336.210938 L 51.519531 354.660156 L 71.84375 374.980469 L 69.480469 374.980469 L 50.507812 356.007812 L 31.609375 374.980469 L 28.871094 374.980469 L 68.65625 335.199219 L 42.597656 309.136719 L 0 351.695312 L 0 349.332031 L 41.582031 307.75 L 23.136719 289.300781 L 0 312.476562 L 0 310.113281 L 68.65625 241.457031 L 42.597656 215.398438 L 0 257.957031 L 0 255.59375 L 41.582031 214.011719 L 23.136719 195.5625 L 0 218.734375 L 0 216.371094 L 68.65625 147.714844 L 42.597656 121.65625 L 0 164.214844 L 0 161.851562 L 41.582031 120.269531 L 23.136719 101.820312 L 0 124.992188 L 0 122.632812 L 68.65625 53.976562 L 42.597656 27.914062 L 0 70.472656 L 0 68.113281 L 41.582031 26.566406 L 23.136719 8.117188 L 0 31.253906 L 0 28.890625 L 28.871094 0.0195312 L 31.609375 0.0195312 L 24.523438 7.105469 L 93.476562 76.0625 L 162.394531 7.105469 L 155.273438 0.0195312 L 158.007812 0.0195312 L 187.179688 29.191406 L 216.351562 0.0195312 L 219.089844 0.0195312 L 212.003906 7.105469 L 280.960938 76.0625 L 349.878906 7.105469 L 342.753906 0.0195312 L 345.492188 0.0195312 L 374.664062 29.191406 L 374.960938 28.890625 L 374.960938 31.253906 L 374.664062 31.554688 Z M 145.296875 26.566406 L 187.179688 68.449219 L 187.480469 68.148438 L 229.066406 26.566406 L 210.617188 8.117188 L 187.179688 31.554688 L 163.746094 8.117188 Z M 118.261719 53.976562 L 187.21875 122.929688 L 187.519531 122.632812 L 256.175781 53.976562 L 230.113281 27.914062 L 187.480469 70.472656 L 187.179688 70.773438 L 144.324219 27.914062 Z M 229.066406 214.046875 L 210.617188 195.597656 L 187.179688 219.035156 L 163.746094 195.597656 L 145.296875 214.046875 L 187.179688 255.929688 L 187.480469 255.628906 Z M 187.480469 257.957031 L 187.179688 258.253906 L 144.324219 215.398438 L 118.261719 241.457031 L 187.21875 310.414062 L 256.175781 241.457031 L 230.113281 215.398438 Z M 216.351562 187.5 L 256.136719 147.714844 L 230.078125 121.65625 L 187.480469 164.214844 L 187.179688 164.515625 L 144.324219 121.65625 L 118.261719 147.714844 L 158.007812 187.5 L 187.179688 216.671875 Z M 229.066406 120.308594 L 210.617188 101.859375 L 187.480469 124.992188 L 187.179688 125.292969 L 163.746094 101.859375 L 145.296875 120.308594 L 187.179688 162.191406 L 187.480469 161.890625 Z M 51.558594 73.4375 L 93.441406 115.320312 L 135.324219 73.4375 L 116.875 54.988281 L 93.441406 78.421875 L 70.003906 54.988281 Z M 93.441406 169.800781 L 162.394531 100.847656 L 136.335938 74.785156 L 93.441406 117.644531 L 50.582031 74.785156 L 24.523438 100.847656 Z M 51.558594 167.175781 L 71.878906 187.5 L 93.402344 209.023438 L 135.25 167.175781 L 116.800781 148.730469 L 93.367188 172.164062 L 69.929688 148.730469 Z M 93.441406 263.542969 L 162.394531 194.585938 L 155.273438 187.5 L 136.300781 168.527344 L 117.324219 187.5 L 93.441406 211.386719 L 50.582031 168.527344 L 24.523438 194.585938 Z M 51.558594 260.917969 L 93.441406 302.800781 L 135.324219 260.917969 L 116.875 242.46875 L 93.441406 265.90625 L 70.003906 242.46875 Z M 162.394531 288.328125 L 136.335938 262.265625 L 93.441406 305.125 L 50.582031 262.265625 L 24.523438 288.328125 L 93.476562 357.28125 Z M 229.066406 307.789062 L 210.617188 289.339844 L 187.480469 312.476562 L 187.179688 312.773438 L 163.746094 289.339844 L 145.296875 307.789062 L 187.179688 349.671875 L 187.480469 349.371094 Z M 323.78125 262.265625 L 280.921875 305.125 L 238.0625 262.265625 L 212.003906 288.328125 L 280.960938 357.28125 L 349.914062 288.328125 Z M 304.355469 242.46875 L 280.921875 265.90625 L 257.488281 242.46875 L 239.039062 260.917969 L 280.921875 302.800781 L 322.804688 260.917969 Z M 323.78125 168.527344 L 280.921875 211.386719 L 238.0625 168.527344 L 212.003906 194.585938 L 280.960938 263.542969 L 349.914062 194.585938 L 342.753906 187.5 Z M 304.355469 148.730469 L 280.921875 172.164062 L 257.488281 148.730469 L 239.039062 167.175781 L 259.363281 187.5 L 280.882812 209.023438 L 322.730469 167.175781 Z M 323.78125 74.785156 L 280.921875 117.644531 L 238.0625 74.785156 L 212.003906 100.847656 L 280.960938 169.800781 L 349.914062 100.847656 Z M 304.355469 54.988281 L 280.921875 78.421875 L 257.488281 54.988281 L 239.039062 73.4375 L 280.921875 115.320312 L 322.804688 73.4375 Z M 304.808594 0.0195312 L 302.445312 0.0195312 L 280.921875 21.542969 L 259.398438 0.0195312 L 257.035156 0.0195312 L 280.921875 23.902344 Z M 304.808594 0.0195312 "/></g><mask id="8f1d5095e2"><g filter="url(#6e0165ccd3)"><rect x="0" width="375" y="0" height="374.999991" style="fill:#000000;fill-opacity:0.09;stroke:none;"/></g></mask></g></g></svg>